<?xml version="1.0" standalone="no"?>
<!DOCTYPE svg PUBLIC "-//W3C//DTD SVG 20010904//EN"
 "http://www.w3.org/TR/2001/REC-SVG-20010904/DTD/svg10.dtd">
<svg version="1.0" xmlns="http://www.w3.org/2000/svg"
 width="1710.000000pt" height="296.000000pt" viewBox="0 0 1710.000000 296.000000"
 preserveAspectRatio="xMidYMid meet">

<g transform="translate(0.000000,296.000000) scale(0.100000,-0.100000)"
fill="#000000" stroke="none">
<path d="M16435 2693 c-43 -10 -357 -349 -367 -396 -9 -42 1 -95 21 -110 9 -7
21 -22 28 -34 17 -31 5 -51 -98 -157 l-86 -89 -46 47 -45 48 25 46 c37 70 42
153 12 222 -28 66 -48 90 -113 138 -47 34 -51 35 -136 35 -73 0 -93 -3 -124
-22 -20 -13 -36 -27 -36 -32 0 -5 -7 -9 -15 -9 -9 0 -18 -8 -22 -17 -3 -10
-14 -26 -24 -35 -25 -25 -52 -125 -46 -175 l4 -41 -50 -21 c-27 -12 -54 -21
-59 -21 -5 0 -34 -11 -64 -25 -30 -14 -56 -25 -57 -25 -2 0 -19 21 -39 48 -47
61 -130 105 -202 105 -109 2 -223 -84 -257 -194 -24 -76 -24 -92 1 -170 42
-134 181 -219 306 -186 l51 13 20 -30 c11 -17 34 -56 50 -86 16 -30 36 -65 43
-77 12 -19 12 -24 -1 -40 -9 -10 -33 -48 -54 -85 -42 -73 -49 -77 -118 -57
-38 10 -127 -2 -170 -23 -41 -21 -112 -110 -129 -161 -22 -68 -22 -103 0 -174
40 -126 185 -214 304 -183 60 15 98 31 98 41 0 4 8 10 18 13 11 4 25 18 32 31
7 14 19 25 26 25 7 0 43 -16 81 -36 82 -43 109 -57 146 -75 24 -11 27 -16 21
-47 -9 -49 15 -140 50 -190 17 -24 51 -58 76 -75 39 -27 56 -32 123 -35 60 -3
88 0 118 13 21 10 39 22 39 27 0 4 5 8 10 8 13 0 80 66 80 78 0 5 8 24 17 43
27 54 29 138 4 194 -28 64 -27 71 17 114 20 20 67 71 104 112 37 40 99 107
137 148 l69 74 38 -24 c32 -19 51 -23 118 -23 87 0 107 7 171 59 92 74 124
228 71 333 -39 76 -91 122 -159 141 -82 23 -141 16 -218 -25 -25 -13 -28 -12
-65 26 -22 22 -48 40 -58 40 -19 0 -19 0 -1 14 11 8 24 29 30 47 8 24 20 37
43 44 17 6 57 36 88 68 l56 56 45 -44 c83 -83 116 -76 243 54 147 150 225 237
238 266 31 67 7 115 -117 242 -56 57 -101 105 -101 109 0 13 -107 108 -137
120 -18 8 -34 13 -35 13 -2 -1 -12 -3 -23 -6z m97 -96 c98 -98 228 -237 228
-243 0 -4 11 -17 25 -30 18 -16 25 -33 25 -59 0 -32 -10 -47 -77 -118 -43 -45
-91 -96 -108 -115 -87 -97 -139 -142 -165 -142 -21 0 -51 26 -147 128 -198
209 -203 215 -203 252 0 26 9 42 43 74 23 23 55 57 71 76 15 19 68 77 118 128
108 111 123 115 190 49z m-829 -231 c87 -36 140 -146 116 -241 -15 -63 -33
-91 -83 -126 -34 -25 -48 -29 -106 -29 -57 0 -73 4 -112 30 -25 17 -49 38 -52
48 -3 9 -13 28 -21 42 -25 42 -13 190 15 190 4 0 10 8 12 18 3 10 27 33 53 50
54 36 120 43 178 18z m-730 -285 c79 -36 111 -90 111 -186 0 -95 -38 -159
-113 -191 -60 -25 -160 -12 -206 26 -72 59 -91 190 -40 275 49 84 158 117 248
76z m1269 -156 c-31 -34 -61 -55 -89 -64 -36 -11 -44 -19 -55 -53 -11 -32 -21
-43 -48 -52 -26 -9 -37 -20 -49 -53 -11 -31 -21 -43 -36 -43 -11 0 -24 -4 -30
-8 -16 -12 -35 -50 -35 -72 0 -18 -7 -20 -55 -20 -30 0 -73 7 -95 16 -49 20
-52 14 93 164 59 60 107 114 107 119 0 5 9 13 20 16 11 3 20 11 20 16 0 5 41
52 92 105 l92 94 58 -57 57 -57 -47 -51z m-820 76 l35 -39 -26 -43 c-14 -24
-31 -50 -38 -57 -7 -7 -13 -20 -13 -28 0 -8 -4 -14 -8 -14 -5 0 -19 -21 -32
-46 -13 -25 -27 -47 -31 -50 -5 -2 -41 12 -81 33 l-73 38 0 83 0 82 40 11 c22
6 45 15 50 19 9 7 120 47 136 49 3 1 21 -16 41 -38z m417 -96 c47 -49 47 -47
-4 -103 -51 -56 -57 -61 -74 -52 -41 23 -97 40 -132 40 -76 0 -168 -49 -212
-113 -11 -15 -15 -16 -31 -4 -17 12 -17 16 -3 43 9 17 23 36 31 43 9 8 16 19
16 26 0 6 9 22 20 35 11 13 20 28 20 34 1 6 11 24 24 40 18 21 29 27 43 21 53
-22 90 -24 153 -9 36 9 72 22 80 30 20 19 20 19 69 -31z m-674 -189 c70 -32
94 -53 87 -79 -3 -12 -8 -24 -12 -27 -4 -3 -22 -29 -40 -58 -36 -59 -44 -58
-78 6 -11 20 -29 54 -41 76 -23 40 -24 37 19 88 8 10 17 17 20 15 3 -2 23 -11
45 -21z m532 -8 c24 -2 43 -4 43 -6 0 -1 -25 -28 -55 -59 -31 -31 -54 -60 -52
-66 1 -5 45 -24 97 -41 52 -17 96 -31 98 -32 8 -4 -26 -101 -40 -116 -10 -10
-18 -22 -18 -27 0 -5 -8 -12 -17 -15 -10 -4 -34 -16 -53 -26 -47 -27 -96 -25
-158 6 -99 49 -143 182 -91 279 25 46 74 94 104 100 41 9 70 12 85 9 8 -2 34
-5 57 -6z m363 -26 c0 -5 22 -30 49 -57 l48 -48 -23 -35 c-13 -19 -24 -41 -24
-48 0 -17 -2 -17 -120 5 -67 12 -89 20 -74 25 15 4 23 18 28 44 5 34 10 39 43
48 30 7 39 15 47 42 8 28 26 45 26 24z m-682 -77 c1 -1 -2 -14 -8 -29 -46
-121 62 -306 193 -330 l37 -7 0 -159 0 -158 -47 -16 c-26 -9 -47 -16 -48 -16
-1 0 -12 21 -25 48 -13 26 -30 53 -37 60 -7 7 -13 18 -13 24 0 5 -10 24 -22
41 -13 18 -30 45 -38 60 -73 136 -94 172 -106 185 -8 7 -14 19 -14 25 0 7 -9
23 -20 37 -11 14 -20 35 -20 47 0 22 65 135 82 141 4 2 8 11 8 21 0 27 21 41
49 34 14 -3 27 -7 29 -8z m1104 -29 c73 -56 98 -140 71 -230 -15 -48 -27 -67
-66 -100 -43 -36 -55 -41 -110 -44 -57 -4 -66 -1 -112 30 -126 84 -131 256
-10 347 36 27 48 30 111 31 66 0 74 -3 116 -34z m-461 -156 l77 -12 6 -50 c7
-47 28 -94 50 -110 12 -8 2 -21 -85 -113 -36 -38 -90 -97 -120 -129 -142 -154
-144 -156 -160 -142 -8 7 -40 24 -71 36 l-58 24 0 157 0 158 38 7 c20 3 53 18
72 32 40 29 90 80 90 91 0 4 7 23 16 40 14 28 21 32 43 28 14 -3 60 -11 102
-17z m-833 -106 c12 -20 22 -41 22 -49 0 -7 4 -15 9 -17 5 -1 20 -25 35 -53
15 -27 38 -68 51 -90 14 -22 32 -53 40 -70 8 -16 26 -48 39 -70 14 -22 34 -57
46 -78 l21 -37 -32 -39 c-34 -43 -39 -43 -101 -4 -21 13 -43 23 -49 23 -6 0
-23 9 -39 20 -15 11 -39 24 -54 30 -26 9 -26 11 -20 80 8 81 -9 141 -57 202
-22 28 -28 44 -23 63 3 14 9 25 13 25 5 0 20 23 35 50 15 28 30 50 34 50 4 -1
17 -17 30 -36z m-186 -151 c64 -50 82 -88 82 -174 1 -65 -3 -81 -24 -113 -56
-82 -160 -117 -240 -81 -22 10 -40 22 -40 27 0 4 -7 8 -15 8 -9 0 -19 8 -22
18 -4 9 -15 29 -25 43 -15 19 -19 43 -19 101 0 88 21 129 86 172 33 22 50 26
110 26 63 0 76 -3 107 -27z m687 -326 c133 -40 183 -225 88 -330 -84 -91 -190
-96 -285 -13 -110 96 -66 298 73 342 52 16 71 16 124 1z"/>
<path d="M16399 2467 c-42 -28 -58 -80 -39 -126 6 -17 50 -66 96 -111 97 -93
117 -99 170 -46 59 59 46 99 -73 222 -80 83 -106 93 -154 61z m134 -108 c46
-48 77 -89 77 -101 0 -24 -27 -58 -45 -58 -7 0 -45 32 -85 72 -78 78 -97 120
-65 151 9 9 22 17 28 17 7 0 47 -36 90 -81z"/>
<path d="M4817 2064 c-4 -4 -7 -93 -7 -197 l0 -190 -21 27 c-58 74 -189 93
-292 43 -95 -47 -151 -140 -163 -274 -11 -119 22 -227 88 -290 47 -45 96 -63
175 -63 81 0 139 25 183 78 l30 37 0 -53 0 -52 50 0 50 0 -2 468 -3 467 -40 3
c-23 2 -44 0 -48 -4z m-142 -375 c55 -16 92 -44 115 -89 25 -50 29 -228 5
-281 -34 -79 -93 -119 -175 -119 -72 0 -117 25 -154 84 -25 40 -30 60 -34 129
-2 45 1 100 7 123 21 78 77 139 142 154 48 11 49 11 94 -1z"/>
<path d="M5777 2064 c-4 -4 -7 -216 -7 -471 l0 -463 50 0 50 0 -2 468 -3 467
-40 3 c-23 2 -44 0 -48 -4z"/>
<path d="M11857 2064 c-4 -4 -7 -216 -7 -471 l0 -463 50 0 49 0 3 151 3 151
140 -151 140 -151 70 0 70 0 -162 163 -162 162 145 153 146 152 -60 0 -60 0
-136 -144 -136 -145 -2 297 -3 297 -40 3 c-23 2 -44 0 -48 -4z"/>
<path d="M12476 2028 c-40 -57 12 -117 79 -92 37 15 38 82 1 106 -23 16 -65 8
-80 -14z"/>
<path d="M510 1575 l0 -445 45 0 45 0 1 378 c1 207 3 368 6 357 3 -11 77 -181
166 -377 138 -308 164 -358 182 -358 18 0 43 48 175 341 84 188 159 358 166
378 11 31 13 -21 14 -341 l0 -378 45 0 45 0 0 445 0 445 -54 0 c-31 0 -58 -5
-63 -12 -8 -10 -245 -529 -316 -691 -11 -26 -20 -10 -173 335 l-160 363 -62 3
-62 3 0 -446z"/>
<path d="M1640 1575 l0 -445 225 0 225 0 0 45 0 45 -180 0 -180 0 0 400 0 400
-45 0 -45 0 0 -445z"/>
<path d="M2520 1575 l0 -445 45 0 45 0 1 378 c1 207 3 368 6 357 3 -11 77
-181 166 -377 138 -308 164 -358 182 -358 18 0 43 48 175 341 84 188 159 358
166 378 11 31 13 -21 14 -341 l0 -378 45 0 45 0 0 445 0 445 -54 0 c-31 0 -58
-5 -63 -12 -8 -10 -245 -529 -316 -691 -11 -26 -20 -10 -173 335 l-160 363
-62 3 -62 3 0 -446z"/>
<path d="M6280 2013 c0 -4 58 -204 129 -443 l128 -435 56 -3 56 -3 10 38 c72
262 200 692 201 674 0 -14 44 -179 97 -368 l97 -343 56 0 57 0 121 428 c67
236 122 436 122 445 0 13 -10 17 -45 17 -38 0 -47 -4 -55 -22 -5 -13 -50 -178
-100 -368 -103 -390 -102 -385 -108 -350 -4 25 -174 646 -193 708 -10 30 -14
32 -55 32 -24 0 -44 -2 -44 -5 0 -3 -47 -169 -105 -369 -58 -200 -105 -374
-105 -387 -1 -13 -14 26 -30 86 -16 61 -65 236 -108 390 l-79 280 -51 3 c-29
2 -52 -1 -52 -5z"/>
<path d="M8253 1933 l-43 -15 0 -79 0 -79 -55 0 -55 0 0 -40 0 -40 55 0 55 0
0 -222 c0 -203 2 -225 20 -264 25 -51 68 -74 137 -74 81 0 93 7 93 49 l0 38
-53 -5 c-42 -3 -57 0 -77 16 l-25 20 -3 221 -3 221 80 0 81 0 0 40 0 40 -80 0
-79 0 -3 93 -3 94 -42 -14z"/>
<path d="M3833 1770 c-99 -21 -186 -97 -219 -191 -28 -79 -26 -217 4 -283 35
-78 67 -112 133 -145 53 -27 73 -31 139 -31 142 0 232 55 285 172 25 54 29 76
29 153 1 122 -21 183 -88 250 -70 69 -176 98 -283 75z m168 -96 c44 -22 86
-79 99 -134 17 -71 9 -185 -17 -235 -41 -79 -88 -105 -187 -105 -126 0 -206
91 -206 234 0 117 32 190 98 229 64 38 152 42 213 11z"/>
<path d="M5297 1770 c-59 -15 -91 -35 -140 -90 -62 -69 -82 -130 -82 -251 1
-88 3 -101 34 -163 35 -71 82 -115 148 -137 55 -18 208 -7 266 19 46 20 47 22
47 66 l0 45 -52 -27 c-59 -31 -164 -41 -221 -23 -66 22 -127 113 -127 189 l0
22 226 0 227 0 -7 73 c-16 179 -88 266 -233 281 -26 3 -65 1 -86 -4z m143 -95
c36 -19 67 -69 76 -123 l7 -42 -177 0 -176 0 6 28 c14 57 56 111 109 140 29
16 121 14 155 -3z"/>
<path d="M7683 1770 c-24 -5 -63 -18 -88 -29 -45 -20 -45 -20 -45 -70 l0 -50
52 32 c44 27 62 33 128 35 70 4 79 2 107 -22 23 -19 34 -41 42 -78 6 -28 10
-52 8 -54 -2 -2 -50 -10 -108 -19 -133 -20 -168 -30 -209 -57 -61 -42 -75 -71
-75 -156 0 -65 4 -82 24 -111 33 -46 92 -71 169 -71 76 0 126 23 171 77 l31
38 0 -53 0 -52 46 0 45 0 -3 253 c-3 248 -3 253 -28 297 -16 28 -40 53 -65 67
-46 25 -140 36 -202 23z m207 -357 c0 -87 -42 -168 -102 -199 -22 -12 -49 -15
-91 -12 -77 6 -107 35 -107 104 0 84 29 106 167 128 137 21 133 22 133 -21z"/>
<path d="M8777 1770 c-59 -15 -91 -35 -140 -90 -62 -69 -82 -130 -82 -251 1
-88 3 -101 34 -163 35 -71 82 -115 148 -137 55 -18 208 -7 266 19 46 20 47 22
47 66 l0 45 -52 -27 c-59 -31 -164 -41 -221 -23 -66 22 -127 113 -127 189 l0
22 226 0 227 0 -7 73 c-16 179 -88 266 -233 281 -26 3 -65 1 -86 -4z m143 -95
c36 -19 67 -69 76 -123 l7 -42 -177 0 -176 0 6 28 c14 57 56 111 109 140 29
16 121 14 155 -3z"/>
<path d="M9934 1771 c-44 -11 -99 -47 -123 -79 l-20 -27 -1 48 0 47 -50 0 -50
0 0 -315 0 -315 50 0 50 0 0 210 c0 168 3 218 16 248 33 80 101 120 177 103
48 -11 66 -27 88 -76 16 -35 19 -69 19 -262 l0 -223 49 0 50 0 3 223 3 224 27
41 c38 57 70 76 129 75 57 -1 92 -20 116 -66 15 -27 18 -65 21 -264 l4 -233
44 0 45 0 -3 253 c-3 238 -4 254 -25 294 -44 81 -125 114 -229 93 -49 -10 -66
-20 -109 -64 l-53 -52 -18 34 c-33 62 -135 102 -210 83z"/>
<path d="M10923 1770 c-24 -5 -63 -18 -88 -29 -45 -20 -45 -20 -45 -70 l0 -50
52 32 c44 27 62 33 128 35 70 4 79 2 107 -22 23 -19 34 -41 42 -78 6 -28 10
-52 8 -54 -2 -2 -50 -10 -108 -19 -133 -20 -168 -30 -209 -57 -61 -42 -75 -71
-75 -156 0 -65 4 -82 24 -111 33 -46 92 -71 169 -71 76 0 126 23 171 77 l31
38 0 -53 0 -52 46 0 45 0 -3 253 c-3 248 -3 253 -28 297 -16 28 -40 53 -65 67
-46 25 -140 36 -202 23z m207 -357 c0 -87 -42 -168 -102 -199 -22 -12 -49 -15
-91 -12 -77 6 -107 35 -107 104 0 84 29 106 167 128 137 21 133 22 133 -21z"/>
<path d="M13025 1771 c-49 -13 -90 -38 -124 -76 l-31 -36 0 51 0 50 -50 0 -50
0 0 -315 0 -315 50 0 50 0 0 208 c0 228 7 259 66 314 60 55 163 57 213 4 42
-44 51 -103 51 -323 l0 -203 46 0 45 0 -3 248 c-3 218 -5 251 -22 282 -24 45
-54 78 -87 95 -33 18 -115 26 -154 16z"/>
<path d="M13667 1770 c-97 -25 -160 -82 -199 -180 -32 -81 -32 -245 0 -315 48
-106 123 -154 236 -155 84 0 142 24 186 78 l30 37 0 -71 c0 -170 -71 -244
-235 -244 -62 0 -93 6 -140 25 -33 14 -61 25 -63 25 -2 0 -2 -21 0 -47 l3 -48
55 -19 c74 -25 216 -27 285 -3 103 35 165 115 185 238 5 35 10 200 10 367 l0
302 -50 0 -50 0 0 -42 -1 -43 -20 28 c-42 56 -149 87 -232 67z m118 -81 c103
-29 135 -84 135 -232 0 -91 -3 -109 -26 -155 -37 -75 -92 -106 -177 -100 -79
5 -116 30 -151 100 -43 86 -35 233 17 308 28 43 66 70 108 80 48 11 49 11 94
-1z"/>
<path d="M9445 1752 c-35 -23 -57 -46 -78 -87 l-16 -30 -1 63 0 62 -50 0 -50
0 0 -315 0 -315 49 0 50 0 3 213 c3 197 5 215 25 254 37 68 67 86 141 81 l63
-4 -3 45 -3 46 -50 3 c-35 2 -59 -3 -80 -16z"/>
<path d="M11605 1752 c-35 -23 -57 -46 -78 -87 l-16 -30 -1 63 0 62 -50 0 -50
0 0 -315 0 -315 49 0 50 0 3 213 c3 197 5 215 25 254 37 68 67 86 141 81 l63
-4 -3 45 -3 46 -50 3 c-35 2 -59 -3 -80 -16z"/>
<path d="M12470 1445 l0 -315 50 0 50 0 0 315 0 315 -50 0 -50 0 0 -315z"/>
</g>
</svg>
