<?xml version="1.0" standalone="no"?>
<!DOCTYPE svg PUBLIC "-//W3C//DTD SVG 20010904//EN"
 "http://www.w3.org/TR/2001/REC-SVG-20010904/DTD/svg10.dtd">
<svg version="1.0" xmlns="http://www.w3.org/2000/svg"
 width="1319.000000pt" height="158.000000pt" viewBox="0 0 1319.000000 158.000000"
 preserveAspectRatio="xMidYMid meet">

<g transform="translate(0.000000,158.000000) scale(0.100000,-0.100000)"
fill="#dedede" stroke="none">
<path d="M270 915 l0 -385 70 0 70 0 2 276 3 275 123 -166 c67 -92 128 -165
135 -163 6 2 66 75 132 163 l120 158 3 -272 2 -271 75 0 75 0 0 385 0 385 -83
0 -83 0 -119 -164 c-65 -91 -121 -163 -124 -161 -3 2 -58 75 -121 164 l-115
160 -82 1 -83 0 0 -385z"/>
<path d="M1210 915 l0 -385 275 0 275 0 0 65 0 65 -200 0 -200 0 0 320 0 320
-75 0 -75 0 0 -385z"/>
<path d="M2080 915 l0 -385 70 0 70 0 2 276 3 275 123 -166 c67 -92 128 -165
135 -163 6 2 66 75 132 163 l120 158 3 -272 2 -271 75 0 75 0 0 385 0 385 -83
0 -83 0 -119 -164 c-65 -91 -121 -163 -124 -161 -3 2 -58 75 -121 164 l-115
160 -82 1 -83 0 0 -385z"/>
<path d="M4070 1154 l0 -145 -35 27 c-71 53 -196 60 -285 14 -144 -73 -176
-318 -58 -446 88 -96 263 -113 347 -35 34 32 41 30 41 -11 0 -28 0 -28 65 -28
l65 0 0 385 0 385 -70 0 -70 0 0 -146z m-87 -217 c55 -33 77 -72 77 -135 0
-67 -29 -114 -88 -143 -141 -69 -281 104 -189 234 47 68 131 86 200 44z"/>
<path d="M4960 915 l0 -385 70 0 70 0 0 385 0 385 -70 0 -70 0 0 -385z"/>
<path d="M5400 1293 c1 -5 63 -177 139 -383 l138 -375 63 0 63 0 49 125 c27
69 65 176 84 238 19 61 37 112 39 112 2 0 18 -44 35 -97 18 -54 57 -162 88
-240 l55 -143 61 0 61 0 134 373 c74 204 136 378 139 385 3 9 -16 12 -76 12
l-81 0 -56 -177 c-97 -308 -119 -372 -123 -369 -2 2 -45 125 -97 272 l-93 269
-47 0 -48 0 -91 -267 c-50 -148 -94 -268 -97 -268 -3 0 -45 122 -93 270 l-88
270 -79 0 c-43 0 -79 -3 -79 -7z"/>
<path d="M11000 915 l0 -385 65 0 64 0 3 122 3 123 105 -122 105 -122 83 -1
c45 0 82 2 82 5 0 3 -48 58 -107 123 -59 64 -116 127 -126 139 l-20 22 84 93
c45 51 96 108 113 126 l30 32 -85 0 -84 0 -90 -107 -90 -108 -3 223 -2 222
-65 0 -65 0 0 -385z"/>
<path d="M11589 1281 c-17 -13 -23 -29 -23 -56 0 -46 31 -75 79 -75 38 0 75
37 75 75 0 12 -9 34 -21 49 -25 32 -75 35 -110 7z"/>
<path d="M7383 1213 c-21 -4 -23 -10 -23 -74 l0 -69 -50 0 -50 0 0 -55 0 -55
49 0 49 0 4 -157 c3 -138 6 -163 24 -193 41 -70 117 -98 215 -80 29 6 54 12
56 14 2 2 -3 29 -12 60 -15 51 -19 56 -38 50 -36 -11 -79 -6 -96 11 -13 12
-17 44 -19 155 l-4 140 76 0 76 0 0 55 0 55 -75 0 -75 0 0 75 0 75 -42 -1
c-24 -1 -53 -4 -65 -6z"/>
<path d="M12879 1090 c-24 -30 -24 -30 -64 -15 -120 43 -269 -15 -327 -129
-27 -52 -35 -160 -18 -221 29 -103 113 -167 235 -180 91 -10 122 -22 145 -59
25 -42 25 -73 1 -110 -27 -41 -57 -55 -117 -56 -61 0 -111 29 -134 77 -15 32
-17 33 -77 33 -62 0 -63 0 -63 -27 0 -16 9 -46 19 -68 41 -88 132 -139 251
-139 91 -1 140 15 193 63 51 46 77 102 77 169 0 76 -32 140 -86 170 -14 8 -11
15 22 48 69 69 87 195 40 285 l-24 48 28 37 28 38 -44 33 c-23 18 -47 33 -52
33 -5 0 -20 -14 -33 -30z m-92 -136 c102 -49 112 -206 17 -269 -37 -24 -104
-23 -147 4 -95 58 -86 215 15 264 42 21 71 21 115 1z"/>
<path d="M4503 1076 c-120 -29 -191 -121 -200 -256 -9 -130 63 -246 176 -283
102 -33 229 -17 313 38 l40 27 -41 42 -42 43 -46 -24 c-89 -44 -213 -21 -248
47 -8 16 -15 31 -15 35 0 3 95 5 210 5 l210 0 0 64 c0 144 -69 237 -198 265
-65 13 -92 13 -159 -3z m161 -121 c32 -14 66 -57 66 -85 0 -6 -50 -10 -145
-10 -133 0 -144 1 -138 18 26 75 131 113 217 77z"/>
<path d="M6820 1076 c-123 -27 -189 -96 -208 -217 -16 -106 13 -211 74 -273
37 -36 67 -51 132 -65 80 -17 157 4 215 57 26 25 27 25 27 5 0 -46 9 -53 71
-53 l59 0 0 270 0 270 -65 0 -65 0 0 -34 0 -34 -30 28 c-50 47 -127 64 -210
46z m153 -128 c33 -13 71 -68 80 -117 10 -48 -9 -107 -47 -148 -28 -31 -40
-37 -89 -41 -76 -6 -113 11 -148 67 -63 99 -17 226 92 251 37 8 67 5 112 -12z"/>
<path d="M7923 1076 c-120 -29 -191 -121 -200 -256 -9 -130 63 -246 176 -283
102 -33 229 -17 313 38 l40 27 -41 42 -42 43 -46 -24 c-89 -44 -213 -21 -248
47 -8 16 -15 31 -15 35 0 3 95 5 210 5 l210 0 0 64 c0 144 -69 237 -198 265
-65 13 -92 13 -159 -3z m161 -121 c32 -14 66 -57 66 -85 0 -6 -50 -10 -145
-10 -133 0 -144 1 -138 18 26 75 131 113 217 77z"/>
<path d="M8625 1081 c-38 -10 -68 -26 -84 -45 -16 -19 -31 -12 -31 15 0 17 -7
19 -65 19 l-65 0 0 -270 0 -270 70 0 70 0 0 168 c0 148 2 170 19 196 11 16 30
35 43 42 32 18 114 17 142 -1 23 -15 24 -15 55 39 17 31 31 58 31 61 0 2 -17
13 -37 24 -46 23 -108 32 -148 22z"/>
<path d="M10040 1076 c-123 -27 -189 -96 -208 -217 -16 -106 13 -211 74 -273
37 -36 67 -51 132 -65 80 -17 157 4 215 57 26 25 27 25 27 5 0 -46 9 -53 71
-53 l59 0 0 270 0 270 -65 0 -65 0 0 -34 0 -34 -30 28 c-50 47 -127 64 -210
46z m153 -128 c33 -13 71 -68 80 -117 10 -48 -9 -107 -47 -148 -28 -31 -40
-37 -89 -41 -76 -6 -113 11 -148 67 -63 99 -17 226 92 251 37 8 67 5 112 -12z"/>
<path d="M10765 1081 c-38 -10 -68 -26 -84 -45 -16 -19 -31 -12 -31 15 0 17
-7 19 -65 19 l-65 0 0 -270 0 -270 70 0 70 0 0 168 c0 148 2 170 19 196 11 16
30 35 43 42 32 18 114 17 142 -1 23 -15 24 -15 55 39 17 31 31 58 31 61 0 2
-17 13 -37 24 -46 23 -108 32 -148 22z"/>
<path d="M3156 1060 c-61 -24 -100 -60 -134 -125 -23 -43 -27 -62 -27 -135 0
-73 4 -92 27 -136 49 -93 138 -144 253 -144 116 0 224 73 258 175 38 110 13
230 -63 305 -77 78 -205 102 -314 60z m185 -123 c19 -12 44 -43 57 -69 32 -64
24 -122 -27 -179 -32 -36 -43 -42 -86 -46 -41 -4 -56 0 -84 19 -108 72 -97
239 19 290 32 14 88 8 121 -15z"/>
<path d="M9065 1066 c-17 -7 -36 -20 -44 -29 -16 -20 -31 -13 -31 14 0 17 -7
19 -65 19 l-65 0 0 -270 0 -270 70 0 70 0 0 165 c0 123 4 173 14 193 32 61 86
82 142 56 58 -28 64 -51 64 -244 l0 -170 70 0 70 0 0 159 c0 88 4 171 10 186
17 46 58 75 104 75 88 -1 106 -46 106 -261 l0 -159 66 0 66 0 -4 198 c-3 179
-5 201 -25 237 -28 53 -60 81 -112 100 -88 31 -176 13 -238 -47 l-32 -31 -27
33 c-48 57 -139 77 -209 46z"/>
<path d="M12065 1068 c-16 -6 -47 -23 -67 -39 l-37 -29 -7 35 -6 35 -59 0 -59
0 0 -270 0 -270 64 0 64 0 4 163 c3 134 7 167 22 192 56 92 174 98 226 12 18
-28 20 -51 20 -199 l0 -168 70 0 70 0 0 142 c0 172 -13 253 -50 311 -50 79
-164 117 -255 85z"/>
<path d="M11570 800 l0 -270 70 0 70 0 0 270 0 270 -70 0 -70 0 0 -270z"/>
</g>
</svg>
